<?xml version="1.0" standalone="no"?>
<!DOCTYPE svg PUBLIC "-//W3C//DTD SVG 20010904//EN"
 "http://www.w3.org/TR/2001/REC-SVG-20010904/DTD/svg10.dtd">
<svg version="1.0" xmlns="http://www.w3.org/2000/svg"
 width="1578.000000pt" height="1578.000000pt" viewBox="0 0 1578.000000 1578.000000"
 preserveAspectRatio="xMidYMid meet">
<metadata>
Created by potrace 1.11, written by Peter Selinger 2001-2013
</metadata>
<g transform="translate(0.000000,1578.000000) scale(0.100000,-0.100000)"
fill="#000000" stroke="none">
<path d="M7685 15073 c-22 -2 -105 -12 -185 -24 -1219 -171 -2251 -1014 -2675
-2184 -91 -251 -161 -576 -184 -848 -7 -82 -11 -558 -11 -1320 0 -1172 -1
-1193 -21 -1236 -13 -30 -82 -108 -212 -240 -291 -296 -526 -598 -743 -954
l-29 -49 -624 -289 c-344 -159 -626 -291 -628 -293 -7 -6 122 -278 133 -283 9
-3 765 340 857 389 17 9 17 7 1 -29 -118 -276 -199 -511 -262 -758 -110 -428
-162 -898 -148 -1340 48 -1646 734 -2982 2031 -3954 773 -579 1592 -896 2535
-982 194 -17 647 -15 865 5 1130 102 2061 480 2850 1155 259 222 545 529 764
824 24 31 46 57 50 57 7 0 1305 222 1307 224 3 3 -52 305 -57 310 -3 3 -225
-33 -495 -79 -269 -47 -494 -85 -501 -85 -6 0 23 57 64 128 350 596 570 1274
639 1967 22 230 23 678 0 910 -67 682 -234 1297 -501 1840 -239 488 -519 876
-946 1310 -102 105 -193 201 -200 215 -11 20 -15 105 -17 404 -2 209 1 382 6
385 10 8 -3 1298 -18 1646 -8 184 -18 301 -35 401 -95 559 -316 1060 -667
1512 -104 133 -350 387 -481 495 -521 431 -1138 692 -1801 762 -132 14 -538
19 -661 8z m566 -433 c387 -38 733 -137 1071 -306 899 -451 1494 -1344 1578
-2369 13 -161 29 -1074 30 -1692 l0 -462 -78 48 c-382 238 -865 469 -1260 605
-523 179 -976 262 -1503 273 -594 13 -1116 -70 -1693 -267 -357 -122 -809
-332 -1146 -533 l-175 -105 -8 67 c-12 95 -1 1817 12 1991 33 438 71 626 182
910 305 781 958 1410 1753 1689 213 75 447 128 656 150 121 12 459 13 581 1z
m114 -4350 c1097 -93 2104 -560 2880 -1335 742 -743 1192 -1677 1320 -2745 22
-179 31 -662 16 -845 -55 -679 -236 -1298 -544 -1859 -57 -106 -72 -126 -78
-110 -5 10 -46 239 -93 508 -47 268 -87 491 -90 493 -4 5 -308 -44 -312 -50
-1 -1 52 -306 117 -677 66 -371 117 -684 114 -695 -7 -28 -178 -239 -322 -397
-582 -638 -1369 -1111 -2215 -1333 -900 -236 -1877 -191 -2744 125 -1298 474
-2308 1490 -2769 2785 -270 758 -333 1618 -180 2417 60 307 168 663 285 939
l54 127 229 -492 c126 -270 233 -495 237 -499 7 -8 263 104 284 123 5 5 -116
276 -277 619 l-285 611 82 133 c769 1247 2098 2048 3586 2160 108 8 596 6 705
-3z"/>
<path d="M7493 8825 c-17 -7 -39 -25 -49 -40 -9 -14 -61 -179 -114 -366 -54
-187 -105 -348 -114 -358 -9 -10 -38 -27 -64 -36 -26 -10 -116 -46 -199 -81
-84 -35 -158 -64 -163 -64 -6 0 -145 75 -308 167 -348 196 -362 202 -423 184
-38 -11 -87 -56 -342 -310 -164 -163 -312 -313 -329 -334 -20 -24 -32 -54 -35
-81 -6 -51 -7 -48 199 -420 82 -148 150 -276 151 -285 1 -20 -161 -411 -178
-430 -7 -7 -166 -57 -353 -111 -188 -53 -352 -105 -366 -114 -63 -41 -61 -24
-61 -546 0 -440 1 -477 18 -508 10 -19 33 -40 50 -47 18 -7 178 -54 357 -105
237 -67 331 -98 348 -114 20 -20 192 -402 192 -428 0 -5 -40 -80 -88 -167
-283 -499 -291 -515 -271 -564 14 -37 638 -670 683 -694 58 -30 96 -16 413
160 164 91 310 170 324 177 23 11 40 6 150 -43 68 -30 161 -69 206 -87 45 -18
87 -38 93 -45 6 -7 55 -168 110 -359 55 -190 107 -357 115 -370 33 -50 46 -51
550 -51 433 0 473 1 498 18 15 9 33 27 41 40 8 12 58 173 111 357 53 184 102
344 110 355 8 13 75 47 171 87 88 37 182 77 210 89 l52 22 288 -160 c159 -88
308 -170 331 -182 60 -30 111 -28 159 8 21 16 177 168 346 337 333 336 335
338 308 419 -7 20 -87 170 -178 333 -90 163 -167 304 -169 313 -3 10 26 91 65
181 38 90 75 180 83 201 7 20 22 46 34 56 11 10 158 56 350 110 182 51 342 99
357 107 14 7 36 26 47 40 21 26 21 35 21 508 0 459 -1 482 -20 513 -10 17 -28
37 -40 43 -18 10 -612 185 -667 197 -43 10 -69 52 -152 252 l-83 201 177 320
c110 200 179 335 182 359 3 24 -1 49 -10 67 -9 16 -163 176 -344 356 -362 360
-359 358 -445 325 -22 -9 -165 -86 -317 -171 -152 -85 -288 -160 -303 -167
-24 -10 -41 -5 -170 49 -79 33 -173 72 -209 87 -40 16 -71 35 -77 48 -7 12
-53 166 -103 342 -50 176 -99 336 -110 356 -35 69 -31 69 -551 69 -371 -1
-469 -4 -495 -15z m831 -277 c7 -13 53 -162 100 -331 48 -170 94 -319 102
-333 23 -35 62 -55 229 -122 83 -33 206 -83 274 -112 156 -66 198 -66 306 -3
103 60 487 268 509 277 16 5 63 -37 251 -225 l233 -231 -135 -242 c-75 -132
-151 -268 -169 -302 -52 -93 -49 -144 20 -298 30 -66 80 -186 111 -266 69
-178 84 -201 137 -229 24 -12 177 -60 341 -106 164 -46 305 -89 313 -95 12
-10 14 -66 14 -336 0 -194 -4 -325 -10 -329 -5 -3 -152 -46 -327 -96 -174 -49
-331 -98 -348 -109 -40 -25 -46 -36 -120 -219 -35 -86 -87 -208 -116 -271 -43
-95 -52 -125 -53 -175 -1 -60 0 -61 168 -363 l169 -304 -219 -220 c-120 -120
-227 -224 -237 -229 -14 -8 -75 22 -310 152 -374 208 -332 202 -603 86 -109
-46 -238 -99 -287 -117 -143 -54 -138 -47 -242 -407 -48 -170 -92 -323 -97
-341 l-9 -34 -312 4 c-172 2 -320 8 -329 12 -24 11 -39 55 -128 368 -44 153
-84 287 -90 297 -19 37 -70 69 -176 111 -60 24 -188 77 -284 118 -240 102
-213 106 -535 -72 -137 -76 -271 -150 -297 -165 l-48 -26 -230 230 c-126 126
-230 233 -230 236 0 3 75 143 167 310 156 283 167 306 166 353 0 40 -17 90
-80 236 -44 102 -95 225 -114 274 -20 51 -49 105 -69 128 -35 39 -37 40 -365
134 -214 61 -334 100 -342 111 -10 13 -13 94 -13 324 0 348 -5 328 83 354 29
8 170 48 314 89 145 40 274 81 287 90 38 24 70 74 101 156 15 41 66 163 111
271 67 157 84 207 84 246 0 57 8 39 -183 380 -81 144 -147 268 -147 275 0 14
449 468 463 468 5 0 142 -74 306 -165 364 -201 330 -195 554 -101 83 35 211
87 282 116 122 48 174 81 196 123 6 10 50 160 98 334 49 173 95 319 102 324 8
5 157 9 331 9 l318 0 14 -22z"/>
<path d="M7804 6795 c-511 -79 -922 -481 -1011 -990 -20 -117 -13 -353 16
-475 98 -426 383 -744 789 -880 232 -78 542 -81 763 -9 510 166 860 666 836
1189 -16 333 -144 620 -379 845 -271 262 -640 379 -1014 320z m421 -284 c97
-26 227 -87 310 -145 67 -48 176 -159 222 -227 81 -117 142 -280 163 -434 75
-539 -372 -1046 -925 -1047 -60 -1 -137 5 -170 11 -365 73 -637 319 -741 668
-32 107 -44 323 -25 425 75 394 369 688 764 764 101 19 299 12 402 -15z"/>
</g>
</svg>
